<?xml version="1.0" encoding="utf-8"?>
<!-- Generator: Adobe Illustrator 24.0.1, SVG Export Plug-In . SVG Version: 6.00 Build 0)  -->
<svg version="1.1" id="Layer_1" xmlns="http://www.w3.org/2000/svg" xmlns:xlink="http://www.w3.org/1999/xlink" x="0px" y="0px"
	 viewBox="0 0 64 64" style="enable-background:new 0 0 64 64;" xml:space="preserve">
<style type="text/css">
	.st0{fill:#FFFFFF;}
	.st1{fill:#B22222;}
	.st2{fill:#7F7F7F;}
</style>
<path class="st0" d="M0,0c0.09,64,0.09,64,0.09,64H64V0H0z"/>
<g>
	<path d="M14.03,18.61c-1.34,2.39-2.68,4.77-4.02,7.16c3.37,0.01,6.73,0.01,10.1,0.02c-3.43,6.5-6.85,13-10.28,19.5
		c2.95,0.03,5.9,0.06,8.85,0.09c3.55-6.52,7.09-13.04,10.64-19.56c2.83,0.01,5.66,0.02,8.49,0.03c1.31-2.38,2.63-4.76,3.94-7.13
		C32.51,18.68,23.27,18.65,14.03,18.61z"/>
	<path d="M43.48,18.72c-1.36,2.39-2.71,4.77-4.07,7.16c3.23,0.01,6.45,0.02,9.68,0.03c-3.47,6.42-6.93,12.84-10.4,19.25
		c6.96,0.03,13.92,0.05,20.88,0.08c1.47-2.6,2.95-5.2,4.42-7.8c-3.75,0.01-7.51,0.01-11.26,0.02c3.61-6.28,7.21-12.55,10.82-18.83
		C56.86,18.66,50.17,18.69,43.48,18.72z"/>
	<path d="M33.5,31.58c1.97,0.02,3.82,0.03,5.54,0.04c-1.45,2.63-2.89,5.27-4.34,7.9c-1.88,0-3.76,0-5.64,0L33.5,31.58z"/>
	<path class="st0" d="M35.04,37.23"/>
	<path class="st1" d="M18.68,45.38c0.36-0.01,0.72-0.02,1.07-0.03c3.55-6.51,7.09-13.01,10.64-19.52c-0.36,0-0.71-0.01-1.07-0.01
		C25.77,32.34,22.23,38.86,18.68,45.38z"/>
	<polygon class="st1" points="29.48,38.77 34.05,38.77 37.96,31.58 39.04,31.63 34.7,39.52 29.05,39.52 	"/>
	<path class="st1" d="M10.04,25.68c-3.33,6.54-6.66,13.07-9.98,19.61c0.29,0,0.59,0,0.88,0c3.33-6.52,6.67-13.03,10-19.55
		C10.64,25.72,10.34,25.7,10.04,25.68z"/>
	<path class="st2" d="M50.4,31.67"/>
	<path class="st2" d="M11.53,35.86"/>
	<path class="st2" d="M50.14,40.87"/>
</g>
</svg>
