<?xml version="1.0" encoding="utf-8"?>
<!-- Generator: Adobe Illustrator 24.0.1, SVG Export Plug-In . SVG Version: 6.00 Build 0)  -->
<svg version="1.1" id="Layer_1" xmlns="http://www.w3.org/2000/svg" xmlns:xlink="http://www.w3.org/1999/xlink" x="0px" y="0px"
	 viewBox="0 0 63.89 41.2" style="enable-background:new 0 0 63.89 41.2;" xml:space="preserve">
<style type="text/css">
	.st0{fill:#FFFFFF;}
	.st1{fill:#B22222;}
	.st2{fill:#7F7F7F;}
	.st3{font-family:'SegoeUI-Semibold';}
	.st4{font-size:16.671px;}
</style>
<g>
	<path d="M13.96,0.44c-1.34,2.38-2.68,4.77-4.02,7.15c3.36,0.01,6.73,0.01,10.09,0.02c-3.42,6.5-6.85,12.99-10.27,19.49
		c2.95,0.03,5.89,0.06,8.84,0.09c3.54-6.51,7.09-13.03,10.63-19.54c2.83,0.01,5.66,0.02,8.48,0.03c1.31-2.38,2.62-4.75,3.93-7.13
		C32.42,0.52,23.19,0.48,13.96,0.44z"/>
	<path d="M43.39,0.55c-1.35,2.38-2.71,4.77-4.06,7.15c3.22,0.01,6.45,0.02,9.67,0.03c-3.46,6.41-6.93,12.83-10.39,19.24
		c6.95,0.03,13.91,0.05,20.86,0.08c1.47-2.6,2.94-5.2,4.42-7.79c-3.75,0.01-7.5,0.01-11.25,0.02c3.6-6.27,7.21-12.54,10.81-18.81
		C56.76,0.49,50.07,0.52,43.39,0.55z"/>
	<path d="M33.42,13.4c1.97,0.02,3.82,0.03,5.53,0.04c-1.45,2.63-2.89,5.26-4.34,7.89c-1.88,0-3.76,0-5.64,0L33.42,13.4z"/>
	<path class="st0" d="M34.95,19.05"/>
	<path class="st1" d="M18.6,27.19c0.36-0.01,0.72-0.02,1.07-0.03c3.54-6.5,7.08-13,10.63-19.5c-0.36,0-0.71-0.01-1.07-0.01
		C25.69,14.16,22.15,20.68,18.6,27.19z"/>
	<polygon class="st1" points="29.39,20.59 33.96,20.59 37.86,13.4 38.95,13.45 34.61,21.34 28.97,21.34 	"/>
	<path class="st1" d="M9.98,7.51C6.65,14.04,3.33,20.57,0,27.1c0.29,0,0.59,0,0.88,0c3.33-6.51,6.66-13.02,9.99-19.53
		C10.58,7.55,10.28,7.53,9.98,7.51z"/>
	<path class="st2" d="M50.3,13.5"/>
	<path class="st2" d="M11.46,17.68"/>
	<path class="st2" d="M50.04,22.69"/>
</g>
<text transform="matrix(1.0455 0 0 1 -9.736036e-05 40.4619)" class="st3 st4">ten.zero</text>
</svg>
