<?xml version="1.0" encoding="utf-8"?>
<!-- Generator: Adobe Illustrator 24.0.1, SVG Export Plug-In . SVG Version: 6.00 Build 0)  -->
<svg version="1.1" id="Layer_1" xmlns="http://www.w3.org/2000/svg" xmlns:xlink="http://www.w3.org/1999/xlink" x="0px" y="0px"
	 viewBox="0 0 63.94 14.69" style="enable-background:new 0 0 63.94 14.69;" xml:space="preserve">
<style type="text/css">
	.st0{fill:#FFFFFF;}
	.st1{fill:#B22222;}
	.st2{fill:#222222;}
	.st3{font-family:'Segoe UI', Arial,sans-serif;}
	.st4{font-size:7.5932px;}
</style>
<g>
	<path class="st2" d="M7.2,0.51C6.51,1.74,5.82,2.97,5.12,4.2c1.73,0,3.47,0.01,5.2,0.01c-1.77,3.35-3.53,6.7-5.3,10.05
		c1.52,0.02,3.04,0.03,4.56,0.05c1.83-3.36,3.65-6.72,5.48-10.08c1.46,0.01,2.92,0.01,4.37,0.02c0.68-1.23,1.35-2.45,2.03-3.68
		C16.72,0.55,11.96,0.53,7.2,0.51z"/>
	<path class="st2" d="M22.37,0.57c-0.7,1.23-1.4,2.46-2.09,3.69c1.66,0,3.33,0.01,4.99,0.01c-1.79,3.31-3.57,6.61-5.36,9.92
		c3.59,0.01,7.17,0.03,10.76,0.04c0.76-1.34,1.52-2.68,2.28-4.02c-1.93,0-3.87,0.01-5.8,0.01c1.86-3.23,3.71-6.47,5.57-9.7
		C29.26,0.54,25.82,0.56,22.37,0.57z"/>
	<path class="st2" d="M17.23,7.2c1.02,0.01,1.97,0.02,2.85,0.02c-0.75,1.36-1.49,2.71-2.24,4.07c-0.97,0-1.94,0-2.91,0L17.23,7.2z"/>
	<path class="st0" d="M18.02,10.11"/>
	<path class="st1" d="M9.59,14.31c0.18-0.01,0.37-0.01,0.55-0.02c1.83-3.35,3.65-6.7,5.48-10.05c-0.18,0-0.37,0-0.55-0.01
		C13.25,7.59,11.42,10.95,9.59,14.31z"/>
	<polygon class="st1" points="15.15,10.9 17.51,10.9 19.52,7.2 20.08,7.22 17.84,11.29 14.94,11.29 	"/>
	<path class="st1" d="M5.14,4.16C3.43,7.52,1.71,10.89,0,14.26c0.15,0,0.3,0,0.45,0C2.17,10.9,3.89,7.55,5.61,4.19
		C5.45,4.18,5.3,4.17,5.14,4.16z"/>
</g>
<text transform="matrix(1.0455 0 0 1 33.8149 10.1066)" class="st2 st3 st4">ten.zero</text>
</svg>
